<svg width="3" height="4" viewBox="0 0 3 4" fill="none" xmlns="http://www.w3.org/2000/svg">
<path d="M2.07753 0.623962C2.07521 0.678509 2.05312 0.731809 2.04132 0.784895C2.03505 0.813123 2.03113 0.842702 2.0212 0.86996C2.01337 0.891463 1.99982 0.910313 1.99592 0.933183C1.99151 0.958979 1.9787 0.978067 1.97292 1.00273C1.96741 1.0263 1.9696 1.05002 1.96775 1.074C1.9598 1.17733 1.96373 1.28182 1.96373 1.38552C1.96373 1.40781 1.96676 1.43313 1.96258 1.45507C1.95692 1.48475 1.94263 1.509 1.93269 1.53726C1.91275 1.59393 1.85825 1.64206 1.8459 1.70106C1.82617 1.79534 1.78689 1.88613 1.74417 1.97407C1.71676 2.03052 1.70505 2.09639 1.67405 2.1511C1.63564 2.21889 1.60587 2.30194 1.54789 2.35686C1.51935 2.3839 1.50426 2.43012 1.47892 2.46032C1.45609 2.48752 1.4268 2.50817 1.40334 2.53475C1.39352 2.54588 1.38723 2.55966 1.37719 2.57125C1.36789 2.58197 1.36515 2.59868 1.36397 2.61235C1.36246 2.62962 1.35385 2.63534 1.34902 2.65143C1.33723 2.69074 1.33998 2.72631 1.31511 2.76265C1.29608 2.79046 1.28204 2.82976 1.25764 2.85288C1.22597 2.88288 1.21505 2.9308 1.18378 2.96381C1.16278 2.98598 1.15717 3.0182 1.13866 3.04255C1.11454 3.07429 1.10428 3.11216 1.07889 3.14371C1.03901 3.19326 0.993441 3.24423 0.943529 3.28395C0.932799 3.29249 0.910564 3.31901 0.895537 3.31901C0.864895 3.31901 0.841867 3.24677 0.833462 3.22533C0.813975 3.1756 0.8084 3.12229 0.799839 3.06986C0.796044 3.04661 0.776315 3.00113 0.79754 2.97991C0.824062 2.95338 0.843159 2.92266 0.867373 2.89542C0.889587 2.87042 0.922088 2.85781 0.942667 2.83248C0.967448 2.80198 0.975451 2.77065 0.993246 2.73506C1.00329 2.71497 1.0026 2.69227 1.01221 2.67183C1.02282 2.64929 1.03829 2.62166 1.04296 2.59711C1.04703 2.57577 1.06007 2.54484 1.07113 2.52642C1.09055 2.49405 1.11283 2.46312 1.12975 2.42928C1.13674 2.41531 1.1338 2.40138 1.13722 2.38675C1.14158 2.36812 1.15387 2.35187 1.15906 2.33272C1.18071 2.25289 1.23108 2.18602 1.2539 2.10742C1.26286 2.07655 1.28151 2.05246 1.29011 2.01948C1.29561 1.99838 1.31081 1.9836 1.31597 1.962C1.31918 1.94859 1.3239 1.93251 1.32977 1.92005C1.34282 1.89231 1.34141 1.85946 1.34701 1.82923C1.35167 1.80408 1.36074 1.77916 1.3677 1.75452C1.37507 1.72841 1.37528 1.70153 1.38207 1.6752C1.38964 1.64587 1.38624 1.61465 1.39069 1.58496C1.3944 1.56027 1.40555 1.51675 1.42058 1.49702C1.4483 1.46065 1.44857 1.39362 1.46484 1.35103C1.48162 1.30709 1.48467 1.25899 1.5022 1.21482C1.51222 1.18957 1.51367 1.16294 1.52404 1.1378C1.53343 1.11502 1.54727 1.0816 1.54473 1.05618C1.54454 1.05429 1.50864 1.10848 1.50162 1.11941C1.49166 1.13493 1.48857 1.15356 1.48036 1.16998C1.47163 1.18744 1.45893 1.20246 1.44932 1.21941C1.42275 1.26627 1.39875 1.31805 1.36713 1.36138C1.35243 1.38152 1.33541 1.41139 1.33235 1.43581C1.32894 1.46309 1.3257 1.49189 1.32172 1.51973C1.31355 1.57695 1.28091 1.6308 1.28091 1.68986C1.28091 1.72741 1.28091 1.76496 1.28091 1.80251C1.28091 1.8311 1.26917 1.84738 1.26511 1.87378C1.26286 1.88838 1.2573 1.90224 1.25505 1.91689C1.25167 1.93886 1.23331 1.95375 1.2266 1.97465C1.22154 1.99038 1.22322 2.01297 1.21338 2.02609C1.20342 2.03937 1.20038 2.05147 1.19556 2.0669C1.1832 2.10645 1.17803 2.14976 1.16021 2.18702C1.14029 2.22867 1.11196 2.26266 1.09986 2.30801C1.09492 2.32656 1.08589 2.33721 1.07716 2.35399C1.06922 2.36927 1.07009 2.38667 1.06279 2.40198C1.0498 2.42927 1.03102 2.45154 1.02773 2.48274C1.02608 2.49846 1.02107 2.51095 1.0171 2.52584C1.00651 2.56556 0.992877 2.60527 0.980314 2.64453C0.962158 2.70127 0.923856 2.75085 0.919102 2.81265C0.915383 2.86099 0.910927 2.90935 0.905882 2.95778C0.90112 3.00349 0.879306 3.04051 0.870247 3.0848C0.866013 3.1055 0.862512 3.12352 0.849268 3.14055C0.838598 3.15427 0.836957 3.17469 0.825703 3.18969C0.788151 3.23976 0.735132 3.26739 0.685174 3.30292C0.660172 3.3207 0.630159 3.34493 0.623962 3.37592" stroke="white" stroke-linecap="round"/>
</svg>
