<svg width="3" height="5" viewBox="0 0 3 5" fill="none" xmlns="http://www.w3.org/2000/svg">
<path d="M1.79035 0.508086C1.72078 0.647226 1.65304 0.782876 1.58167 0.919128C1.54054 0.997654 1.5472 1.09642 1.50421 1.17524C1.45875 1.25857 1.39578 1.28185 1.39196 1.39657C1.38961 1.46699 1.39196 1.53793 1.39196 1.60841C1.39196 1.97169 1.42418 2.34113 1.25126 2.65815C1.20861 2.73633 1.20106 2.84814 1.17695 2.93324C1.15538 3.00938 1.08713 3.0899 1.07893 3.16089C1.06599 3.27311 0.938728 3.44508 0.895546 3.55612C0.853451 3.66437 0.868314 3.67978 0.794366 3.77113C0.720582 3.86228 0.641839 3.95727 0.573036 4.05254C0.491098 4.16599 0.509798 4.35728 0.509798 4.49204" stroke="white" stroke-linecap="round"/>
</svg>
